<?xml version="1.0" standalone="no"?>
<!DOCTYPE svg PUBLIC "-//W3C//DTD SVG 20010904//EN"
 "http://www.w3.org/TR/2001/REC-SVG-20010904/DTD/svg10.dtd">
<svg version="1.0" xmlns="http://www.w3.org/2000/svg"
 width="225.000000pt" height="225.000000pt" viewBox="0 0 225.000000 225.000000"
 preserveAspectRatio="xMidYMid meet">
<metadata>
Created by potrace 1.11, written by Peter Selinger 2001-2013
</metadata>
<g transform="translate(0.000000,225.000000) scale(0.100000,-0.100000)"
fill="#000000" stroke="none">
<path d="M90 2228 c-33 -17 -51 -35 -67 -68 l-23 -44 0 -991 0 -991 23 -44
c16 -33 34 -51 67 -67 l44 -23 991 0 991 0 44 22 c33 17 51 35 68 68 l22 44 0
991 0 991 -22 44 c-17 33 -35 51 -68 68 l-44 22 -991 0 -991 0 -44 -22z m1105
-287 c163 -42 330 -147 436 -275 71 -85 141 -221 170 -331 31 -113 31 -307 1
-420 -79 -295 -313 -528 -607 -607 -114 -30 -308 -30 -420 1 -79 21 -254 101
-273 124 -7 9 27 57 120 167 71 85 135 160 141 167 9 9 22 7 55 -8 246 -114
534 52 568 326 13 111 -32 234 -118 321 -118 121 -302 156 -448 85 -24 -12
-45 -21 -46 -21 -5 0 -276 330 -277 337 -1 13 143 91 211 114 158 53 330 59
487 20z"/>
</g>
</svg>
