<svg id="Calque_1" data-name="Calque 1" xmlns="http://www.w3.org/2000/svg" viewBox="0 0 54 54"><defs><style>.cls-2{fill:none;stroke:#292929;stroke-width:.93px;stroke-linecap:round;stroke-linejoin:round}</style></defs><path d="M26.83 18.91l-2.07.91a29.7 29.7 0 0 0-7.76-.47l-5.3-2.24-4.62 11.28 5.22 2 .82-1.92c.19.13 1.34.95 3.07 2.31l-.46.52a1.23 1.23 0 0 0 .14 1.77 1.37 1.37 0 0 0 1.89-.15l.45-.51.12.1-1 1.11a1.53 1.53 0 0 0 2.28 2l1-1.12-.66.72a1.52 1.52 0 0 0 2.22 2.07l.34-.36a1.43 1.43 0 0 0 2.07 2l.42-.33 1.1 1.06a1.59 1.59 0 0 0 2.67-.85v-.18a2.36 2.36 0 0 0 1.34.53 2.64 2.64 0 0 0 2.44-1.51L31.06 37h.82a2.42 2.42 0 0 0 3.68-1.23v-.08l-.28-.45a1.65 1.65 0 0 0 2.29-.93 1.45 1.45 0 0 0-.23-1.38l-.76-1 4.71-1.5-1.49-3.54a6.21 6.21 0 0 1-6 1 6.53 6.53 0 0 0 6-1l-2.73-6.38-7.15-1.69a4.79 4.79 0 0 0-3.09.09zM23.19 37l-.33-.29-.18.19.26-.28.26.24zm.42.36h.1l.59.57.31.3zM33.78 28l2.82 3.94-2.84-3.56zm13.25 1.54l-4.62-11.27-5.34 2.24 4.74 11.07 5.22-2.04z" fill="#fff"/><path class="cls-2" d="M39.8 26.89c-6.08 4.11-10.61-2.64-10.61-2.64-2.15-2.94-3.69.1-3.69.1-1.13 2.75-2.76 2.5-3.72 2a1.12 1.12 0 0 1-.57-1.35l.73-2.49a3.85 3.85 0 0 1 2.14-2.45l2.74-1.21a4.79 4.79 0 0 1 3.1-.09l7.15 1.69z"/><path class="cls-2" d="M41.31 30.42l-4.71 1.5-3-4.11a6.29 6.29 0 0 0 6.15-.92zM11.7 17.11l5.34 2.25-4.73 11.06-5.23-2.03m35.33-10.12l-5.34 2.24 4.74 11.07 5.22-2.04"/><path class="cls-2" d="M33.3 27.78l4.06 5.09a1.45 1.45 0 0 1 .23 1.38 1.65 1.65 0 0 1-2.76.58l-5.57-5.91M26.8 31.7l4.69 4.91a2.43 2.43 0 0 0 4.07-.9v-.08M24.55 34l3.88 4.31a2.46 2.46 0 0 0 1.67.84 2.64 2.64 0 0 0 2.44-1.51M24.79 19.8a29.88 29.88 0 0 0-7.79-.44m-3.87 9.12a96.2 96.2 0 0 1 11.2 9.43l1.82 1.75a1.59 1.59 0 0 0 2.67-.85v-.05"/><path class="cls-2" d="M16.21 30.79l-.48.53a1.23 1.23 0 0 0 .14 1.77 1.37 1.37 0 0 0 1.89-.15l.47-.53m2.47 2.12l-1 1.14a1.53 1.53 0 0 1-2.13.12 1.53 1.53 0 0 1-.15-2.16l1-1.13"/><path class="cls-2" d="M20.7 34.53l-.68.74a1.52 1.52 0 0 0 .08 2.13 1.52 1.52 0 0 0 2.14-.07l.71-.75"/><path class="cls-2" d="M25 38.58l-.37.38a1.43 1.43 0 0 1-2 0 1.43 1.43 0 0 1-.05-2l.27-.28"/><path d="M45.91 15.1L52 29.47l-4.14 1.65-6.05-14.33 4.1-1.69zM8.16 13.89L2 28.78l4.25 1.66 6.06-14.81-4.15-1.74z" fill="#f56900" stroke="#f56900" stroke-width="1.55" stroke-linecap="round" stroke-linejoin="round"/><circle cx="10.61" cy="27.21" r=".58"/><circle cx="43.61" cy="28.31" r=".58"/></svg>