<svg xmlns="http://www.w3.org/2000/svg" viewBox="0 0 240 240"><defs><style>.cls-1{fill:#fff}.cls-2{fill:#262626}</style></defs><g id="Calque_2" data-name="Calque 2"><path class="cls-1" d="M197.83 144.1a12.07 12.07 0 1 0 .37 4.61 12.16 12.16 0 0 0-.37-4.61z"/><path class="cls-1" d="M171.19 187.6v-4H18.33a6.13 6.13 0 0 1-6.12-6.12V49.6a6.13 6.13 0 0 1 6.12-6.12h205a6.13 6.13 0 0 1 6.12 6.12v127.88a6.13 6.13 0 0 1-6.12 6.12h-22.11v4z"/><path class="cls-1" d="M197.22 168.84l-22-.06-4-.32v44.68a2 2 0 0 0 3.52 1.3L186.2 201l11.49 13.47a2 2 0 0 0 3.52-1.3v-44.65z"/><path class="cls-2" d="M223.36 39.48h-205A10.13 10.13 0 0 0 8.21 49.6v127.88a10.13 10.13 0 0 0 10.12 10.12h152.86v-4H18.33a6.13 6.13 0 0 1-6.12-6.12V49.6a6.13 6.13 0 0 1 6.12-6.12h205a6.13 6.13 0 0 1 6.12 6.12v127.88a6.13 6.13 0 0 1-6.12 6.12h-22.11v4h22.14a10.13 10.13 0 0 0 10.12-10.12V49.6a10.13 10.13 0 0 0-10.12-10.12z"/><path class="cls-2" d="M223.36 39.48h-205A10.13 10.13 0 0 0 8.21 49.6v127.88a10.13 10.13 0 0 0 10.12 10.12h152.86v-4H18.33a6.13 6.13 0 0 1-6.12-6.12V49.6a6.13 6.13 0 0 1 6.12-6.12h205a6.13 6.13 0 0 1 6.12 6.12v127.88a6.13 6.13 0 0 1-6.12 6.12h-22.11v4h22.14a10.13 10.13 0 0 0 10.12-10.12V49.6a10.13 10.13 0 0 0-10.12-10.12z"/><path class="cls-2" d="M223.36 39.48h-205A10.13 10.13 0 0 0 8.21 49.6v127.88a10.13 10.13 0 0 0 10.12 10.12h152.86v-4H18.33a6.13 6.13 0 0 1-6.12-6.12V49.6a6.13 6.13 0 0 1 6.12-6.12h205a6.13 6.13 0 0 1 6.12 6.12v127.88a6.13 6.13 0 0 1-6.12 6.12h-22.11v4h22.14a10.13 10.13 0 0 0 10.12-10.12V49.6a10.13 10.13 0 0 0-10.12-10.12z"/><path class="cls-2" d="M197.22 168.84v38.87l-9.49-11.12a2 2 0 0 0-3 0l-9.49 11.12v-38.93l-4-.32v44.68a2 2 0 0 0 3.52 1.3L186.2 201l11.49 13.47a2 2 0 0 0 3.52-1.3v-44.65z"/><path d="M205.29 139.71a2 2 0 0 1-.47-1.14l-.74-9.27-9.27-.74a2 2 0 0 1-1.14-.47l-7.08-6-7.08 6a2 2 0 0 1-1.14.47l-9.27.74-.74 9.27a2 2 0 0 1-.47 1.14l-6 7.08 6 7.08a2 2 0 0 1 .47 1.14l.74 9.27 2.09.17 4 .32 3.18.25a2 2 0 0 1 1.14.47l7.08 6 7.08-6a2 2 0 0 1 1.14-.47l2.41-.19 4-.32 2.86-.23.74-9.27a2 2 0 0 1 .47-1.14l6-7.08zm-10.51 13.65a10.48 10.48 0 1 1 1.84-4.84 10.48 10.48 0 0 1-1.84 4.85z" fill="#f56900"/><path class="cls-2" d="M167.24 166.14l-.88-11-7.14-8.38 7.14-8.38.88-11 11-.88 8.38-7.14 8.38 7.14 11 .88.88 11 7.14 8.38-7.14 8.38-.88 11-4.72.38v2l4.88-.39a2 2 0 0 0 1.83-1.83l.82-10.32 6.72-7.88a2 2 0 0 0 0-2.59l-6.72-7.88-.82-10.33a2 2 0 0 0-1.83-1.83l-10.33-.82-7.88-6.72a2 2 0 0 0-2.59 0l-7.88 6.72-10.33.82a2 2 0 0 0-1.83 1.83l-.83 10.33-6.72 7.88a2 2 0 0 0 0 2.59l6.72 7.88.83 10.32a2 2 0 0 0 1.83 1.83l4.11.33v-2z"/><path class="cls-2" d="M185.29 175.67a2 2 0 0 0 2.59 0l7.88-6.72 1.45-.12v-2L195 167l-8.38 7.14-8.41-7.14-3-.24v2l2.22.18zm11.93-8.83v2l4-.32v-2.01l-4 .33zm-26.03-.39v2.01l4 .32v-2.01l-4-.32z"/><path class="cls-2" d="M194.8 165a2 2 0 0 0-1.14.47l-7.08 6-7.08-6a2 2 0 0 0-1.14-.47l-3.18-.25v2l3 .24 8.38 7.14L195 167l2.25-.18v-2z"/><path class="cls-2" d="M169.1 164.28l-.74-9.27a2 2 0 0 0-.47-1.14l-6-7.08 6-7.08a2 2 0 0 0 .47-1.14l.74-9.27 9.27-.74a2 2 0 0 0 1.14-.47l7.08-6 7.08 6a2 2 0 0 0 1.14.47l9.27.74.74 9.27a2 2 0 0 0 .47 1.14l6 7.08-6 7.08a2 2 0 0 0-.47 1.14l-.74 9.27-2.86.23v2l4.72-.38.88-11 7.14-8.38-7.14-8.38-.88-11-11-.88-8.38-7.14-8.38 7.14-11 .88-.88 11-7.14 8.38 7.14 8.38.88 11 3.95.31v-2zm9.12-37.71z"/><path class="cls-2" d="M201.22 164.51l-4 .32v2.01l4-.33v-2zm-30.03-.06v2l4 .32v-2l-4-.32zm26.64-20.35a12.07 12.07 0 1 0 .37 4.61 12.16 12.16 0 0 0-.37-4.61zm-5.51 7.54a7.47 7.47 0 0 1-13.47-2.93v-.08a7.42 7.42 0 0 1 .63-4.52 7.56 7.56 0 0 1 .62-1.06 7.48 7.48 0 0 1 12.23 8.6zM34.54 71.68h54.67a2 2 0 0 0 0-4H34.54a2 2 0 0 0 0 4zm54.67-2zm37.92 2h42.73a2 2 0 0 0 0-4h-42.73a2 2 0 0 0 0 4zm42.73-2zm9.14 2h12.2a2 2 0 0 0 0-4H179a2 2 0 0 0 0 4zm12.24-2zm-83.75 2h12.24a2 2 0 0 0 0-4h-12.24a2 2 0 0 0 0 4zm12.24-2zm-56.49 46.87a2 2 0 0 0 2 2h12.24a2 2 0 0 0 0-4H65.24a2 2 0 0 0-2 2zm14.24 0zm122.3-44.87h6.12a2 2 0 0 0 0-4h-6.12a2 2 0 0 0 0 4zm6.12-2zm-109.44 2h3.06a2 2 0 1 0 0-4h-3.06a2 2 0 0 0 0 4zm3.06-2zm31.62 22.76H76.46a2 2 0 0 0 0 4h54.67a2 2 0 0 0 0-4zm-54.67 2zm11.32 22.11a2 2 0 0 0-2-2 2 2 0 1 0 2 2zm-2 0zM152 92.44a2 2 0 1 0 2 2 2 2 0 0 0-2.05-2zm0 2zm-117.46 2h5.74a2 2 0 1 0 0-4h-5.74a2 2 0 1 0 0 4zm5.74-2zm103.5-2H138a2 2 0 0 0 0 4h5.74a2 2 0 0 0 0-4zm-5.74 2zm-39.71 24.11a2 2 0 0 0 0-4H92.6a2 2 0 0 0 0 4zm0-2zM68.24 92.44H48.31a2 2 0 1 0 0 4h19.93a2 2 0 0 0 0-4zm-19.92 2zm11.96 22.11a2 2 0 0 0-2-2H34.54a2 2 0 0 0 0 4h23.74a2 2 0 0 0 2-2zm-25.74 0zm78.46 44.4a81 81 0 0 0-31.5-2.57q.23-1.33.39-2.67a20.37 20.37 0 0 0-.47-8.68 9.9 9.9 0 0 0-6.51-6.67 9.57 9.57 0 0 0-9.27 3 12 12 0 0 0-.81 1q-.15-1.24-.34-2.48a4.66 4.66 0 0 0-1.36-2.88c-1.67-1.49-4.22-1-6.33 1.29a33.83 33.83 0 0 0-8.41 16.61 1.71 1.71 0 1 0 3.36.63 30.39 30.39 0 0 1 7.55-14.93 3.72 3.72 0 0 1 1.55-1.07 2.54 2.54 0 0 1 .23.88 61.5 61.5 0 0 1 .75 9.72 1.71 1.71 0 0 0 3.39.28 12.68 12.68 0 0 1 2.88-6.7 6.22 6.22 0 0 1 5.9-2.06 6.48 6.48 0 0 1 4.14 4.43 17.26 17.26 0 0 1 .32 7.21q-.22 1.8-.57 3.58a21.82 21.82 0 0 0-9.63 3.59c-3.63 2.72-5.4 7.24-4.3 11a6.44 6.44 0 0 0 3.07 4 5.5 5.5 0 0 0 2.54.6 7.07 7.07 0 0 0 4.43-1.69 13.52 13.52 0 0 0 3.51-5.13 53.66 53.66 0 0 0 3.2-9.33 77.54 77.54 0 0 1 31.29 2.32 1.71 1.71 0 0 0 .94-3.28zm-38.55 8.9a10.58 10.58 0 0 1-2.56 3.89 3.2 3.2 0 0 1-3.24.66 3 3 0 0 1-1.37-1.89c-.83-2.81 1-5.75 3.07-7.29A16.8 16.8 0 0 1 77 162.5a50.29 50.29 0 0 1-2.6 7.34z"/></g></svg>