<svg xmlns="http://www.w3.org/2000/svg" viewBox="0 0 240 240"><defs><style>.cls-2{fill:#262626}.cls-3{fill:#f56900}</style></defs><g id="Calque_2" data-name="Calque 2"><path d="M218.29 185H21.71a10.08 10.08 0 0 1-10.07-10.07V52.32a10.08 10.08 0 0 1 10.07-10.07h196.58a10.08 10.08 0 0 1 10.07 10.06v122.63A10.08 10.08 0 0 1 218.29 185z" fill="#fff"/><path class="cls-2" d="M218.29 185H21.71a10.08 10.08 0 0 1-10.07-10.07V52.32a10.08 10.08 0 0 1 10.07-10.07h196.58a10.08 10.08 0 0 1 10.07 10.06v122.63A10.08 10.08 0 0 1 218.29 185zM21.71 46.81a5.51 5.51 0 0 0-5.51 5.51v122.62a5.51 5.51 0 0 0 5.51 5.51h196.58a5.51 5.51 0 0 0 5.51-5.51V52.32a5.51 5.51 0 0 0-5.51-5.51z"/><path class="cls-2" d="M206.61 167.39H33.38a8.45 8.45 0 0 1-8.44-8.39V64a8.45 8.45 0 0 1 8.44-8.44h173.23a8.45 8.45 0 0 1 8.45 8.44v95a8.45 8.45 0 0 1-8.45 8.39zM33.38 59.56A4.45 4.45 0 0 0 28.94 64v95a4.45 4.45 0 0 0 4.44 4.44h173.23a4.45 4.45 0 0 0 4.44-4.44V64a4.45 4.45 0 0 0-4.44-4.44z"/><path class="cls-3" d="M217 195.47H23a20 20 0 0 1-20-20h234a20 20 0 0 1-20 20z"/><path class="cls-2" d="M217 197.75H23A22.26 22.26 0 0 1 .72 175.51 2.28 2.28 0 0 1 3 173.24h234a2.28 2.28 0 0 1 2.28 2.28A22.26 22.26 0 0 1 217 197.75zm-211.62-20A17.7 17.7 0 0 0 23 193.19h194a17.7 17.7 0 0 0 17.53-15.39z"/><g id="Page-1"><g id="Group"><path id="Page-1-2" data-name="Page-1" class="cls-3" d="M120.52 69.6C108.07 69.6 94 81 94 104.25c.51 12.22 1 21.89-2.39 30.83-3.22 3.81-6.1 9.27-6.11 13.83 0 12.21-2.1 12.47 9 12.33h7.16v-31.85a33.83 33.83 0 0 0-4.59 2.07c2.65-10 1-19.44 1-28 .45 2.58 2.18 5.49 4.2 6.62a39.94 39.94 0 0 0 4.27 7.83c.67 1 1.4 1.86 2.13 2.74l-2.2 7.32-.76.19v33.14h28.54v-33.1l-.73-.19-1.94-6.5a37.29 37.29 0 0 0 2.83-3.6c3.77-5.4 6.46-12.05 6.46-18a2.06 2.06 0 0 0-.76-1.59c-4.78-3.82-6.65-7.66-9.84-11.91-1.35-1.22-2.56-.74-3.5.41-1 2.36-5.92 5.57-11.34 7.64a54.18 54.18 0 0 1-13.35 3.38l-1.75.25a3.9 3.9 0 0 0-2.13 2.74c1.25-19.12 12.87-27.14 22.3-27.14a19.58 19.58 0 0 1 15.26 7.45c4.2 5.07 7.13 12.94 7.17 24-.19 9.58-.9 19.17 1 27a33.83 33.83 0 0 0-5.54-2.61v31.79h7c11.19 0 9.14 0 9.14-12.2a22.22 22.22 0 0 0-5.1-12.93c-3.35-10.33-3.14-21.52-2.39-30.83 0-11.85-3.17-20.78-8.12-26.75a23.76 23.76 0 0 0-18.38-8.92zm8.15 21.56a44.76 44.76 0 0 0 8.06 9.52c-.24 4.57-2.45 10.34-5.64 14.91-3.37 4.82-7.76 8-10.57 8s-7.22-3.22-10.6-8.06a31.18 31.18 0 0 1-5.54-14 55.15 55.15 0 0 0 12.55-3.28c4.55-1.74 9.01-3.94 11.74-7.09zM111.91 124c2.63 2.27 5.53 3.73 8.6 3.73a12.76 12.76 0 0 0 7.77-3.06l1.53 5.1c-5.28 3.39-14.31 3.4-19.65.06zm8.09 14.91a2 2 0 1 1-2 2 2 2 0 0 1 2-2zm0 8.15a2 2 0 1 1-2 2 2 2 0 0 1 2-1.99z"/></g></g></g></svg>