<svg xmlns="http://www.w3.org/2000/svg" viewBox="0 0 240 240"><defs><style>.cls-1{fill:#262626}.cls-3{fill:#fff}</style></defs><g id="Calque_2" data-name="Calque 2"><path class="cls-1" d="M223.66 82.88H16.34a2.54 2.54 0 1 1 0-5.08h207.32a2.54 2.54 0 1 1 0 5.08z"/><circle class="cls-1" cx="143.67" cy="105.4" r="5.44"/><circle class="cls-1" cx="143.67" cy="124.85" r="5.44"/><circle class="cls-1" cx="143.67" cy="145.29" r="5.44"/><circle class="cls-1" cx="143.67" cy="165.74" r="5.44"/><circle class="cls-1" cx="169.01" cy="105.4" r="5.44"/><circle class="cls-1" cx="169.01" cy="124.85" r="5.44"/><circle class="cls-1" cx="169.01" cy="145.29" r="5.44"/><circle class="cls-1" cx="169.01" cy="165.74" r="5.44"/><circle class="cls-1" cx="194.35" cy="105.4" r="5.44"/><circle class="cls-1" cx="194.35" cy="124.85" r="5.44"/><circle class="cls-1" cx="194.35" cy="145.29" r="5.44"/><circle class="cls-1" cx="194.35" cy="165.74" r="5.44"/><circle class="cls-1" cx="42.32" cy="124.85" r="5.44"/><circle class="cls-1" cx="42.32" cy="145.29" r="5.44"/><circle class="cls-1" cx="42.32" cy="165.74" r="5.44"/><circle class="cls-1" cx="42.32" cy="186.19" r="5.44"/><circle class="cls-1" cx="67.66" cy="124.85" r="5.44"/><circle class="cls-1" cx="67.66" cy="145.29" r="5.44"/><circle class="cls-1" cx="67.66" cy="165.74" r="5.44"/><circle class="cls-1" cx="67.66" cy="186.19" r="5.44"/><circle class="cls-1" cx="93" cy="124.85" r="5.44"/><circle class="cls-1" cx="93" cy="145.29" r="5.44"/><circle class="cls-1" cx="93" cy="165.74" r="5.44"/><circle class="cls-1" cx="93" cy="186.19" r="5.44"/><circle class="cls-1" cx="118.34" cy="105.4" r="5.44"/><circle class="cls-1" cx="118.34" cy="124.85" r="5.44"/><circle class="cls-1" cx="118.34" cy="145.29" r="5.44"/><circle class="cls-1" cx="118.34" cy="165.74" r="5.44"/><circle class="cls-1" cx="118.34" cy="186.19" r="5.44"/><path class="cls-1" d="M223.66 82.29h-2.54v114.63a6.14 6.14 0 0 1-6.13 6.13H25a6.14 6.14 0 0 1-6.13-6.13V82.29h-2.53a2.54 2.54 0 0 1-2.54-2.54v117.17A11.22 11.22 0 0 0 25 208.13h190a11.22 11.22 0 0 0 11.21-11.21V79.76a2.54 2.54 0 0 1-2.55 2.53z"/><path d="M181.66 69.59a9.8 9.8 0 0 1-9.79-9.79v-5.61H68.14v5.61a9.79 9.79 0 0 1-19.59 0v-5.61H25a6.14 6.14 0 0 0-6.13 6.13v16.9h202.25v-16.9a6.14 6.14 0 0 0-6.12-6.13h-23.55v5.61a9.8 9.8 0 0 1-9.79 9.79z" fill="#f56900"/><rect class="cls-1" x="68.14" y="49.11" width="103.73"/><path class="cls-1" d="M18.88 79.76h202.25v2.54H18.88zM25 49.11a11.23 11.23 0 0 0-11.14 10.07A11.23 11.23 0 0 1 25 49.11zm190 0a11.23 11.23 0 0 1 11.15 10.07A11.23 11.23 0 0 0 215 49.11zm-146.86 0h103.73v2.54H68.14z"/><path class="cls-1" d="M226.14 59.18A11.23 11.23 0 0 0 215 49.11h-23.55v2.54H215a8.7 8.7 0 0 1 8.67 8.67v19.44h-2.54v2.54h2.54a2.54 2.54 0 0 0 2.54-2.54V60.32a11.23 11.23 0 0 0-.07-1.14zM16.34 82.29h2.54v-2.53h-2.54V60.32A8.7 8.7 0 0 1 25 51.65h23.55v-2.54H25a11.21 11.21 0 0 0-11.2 11.21v19.44a2.54 2.54 0 0 0 2.54 2.53z"/><path class="cls-1" d="M18.88 77.22h202.25v2.54H18.88z"/><path class="cls-1" d="M18.88 60.32A6.14 6.14 0 0 1 25 54.19h23.55v-2.54H25a8.7 8.7 0 0 0-8.67 8.67v19.44h2.54V60.32zm49.26-8.67h103.73v2.54H68.14zM215 54.19a6.14 6.14 0 0 1 6.13 6.13v19.44h2.54V60.32a8.7 8.7 0 0 0-8.67-8.67h-23.55v2.54z"/><rect class="cls-3" x="53.63" y="49.11" width="9.43"/><path class="cls-1" d="M51.09 41.66a7.25 7.25 0 0 1 14.51 0v7.45h2.54v-7.45a9.79 9.79 0 0 0-19.59 0v7.45h2.54zm7.25 27.93a9.8 9.8 0 0 0 9.79-9.79v-5.61H65.6v5.61a7.25 7.25 0 0 1-14.51 0v-5.61h-2.54v5.61a9.8 9.8 0 0 0 9.79 9.79z"/><rect class="cls-1" x="48.55" y="49.11" width="2.54"/><rect class="cls-1" x="65.6" y="49.11" width="2.54"/><path class="cls-1" d="M48.55 49.11h2.54v2.54h-2.54zm17.05 0h2.54v2.54H65.6zm-17.05 2.54h2.54v2.54h-2.54zm17.05 0h2.54v2.54H65.6zm-11.97-9.99a4.71 4.71 0 1 1 9.43 0v7.45h2.54v-7.45a7.25 7.25 0 0 0-14.51 0v7.45h2.54zM58.34 67a7.25 7.25 0 0 0 7.25-7.25v-5.56h-2.53v5.61a4.71 4.71 0 1 1-9.43 0v-5.61h-2.54v5.61a7.25 7.25 0 0 0 7.25 7.2z"/><rect class="cls-1" x="63.06" y="49.11" width="2.54"/><rect class="cls-1" x="51.09" y="49.11" width="2.54"/><path class="cls-1" d="M51.09 49.11h2.54v2.54h-2.54zm11.97 0h2.54v2.54h-2.54zm-11.97 2.54h2.54v2.54h-2.54zm11.97 0h2.54v2.54h-2.54z"/><rect class="cls-3" x="176.94" y="49.11" width="9.43"/><path class="cls-1" d="M174.4 41.66a7.25 7.25 0 0 1 7.25-7.25 7.25 7.25 0 0 1 7.25 7.25v7.45h2.54v-7.45a9.79 9.79 0 0 0-19.59 0v7.45h2.54zM181.66 67a7.25 7.25 0 0 1-7.25-7.25v-5.56h-2.54v5.61a9.79 9.79 0 0 0 19.59 0v-5.61h-2.54v5.61a7.25 7.25 0 0 1-7.26 7.2z"/><rect class="cls-1" x="188.91" y="49.11" width="2.54"/><rect class="cls-1" x="171.86" y="49.11" width="2.54"/><path class="cls-1" d="M171.86 49.11h2.54v2.54h-2.54zm17.05 0h2.54v2.54h-2.54zm0 2.54h2.54v2.54h-2.54zm-17.05 0h2.54v2.54h-2.54zm5.08-9.99a4.71 4.71 0 1 1 9.43 0v7.45h2.54v-7.45a7.25 7.25 0 0 0-7.25-7.25 7.25 7.25 0 0 0-7.25 7.25v7.45h2.54zm9.43 18.13a4.71 4.71 0 1 1-9.43 0v-5.6h-2.54v5.61a7.25 7.25 0 0 0 7.26 7.2 7.25 7.25 0 0 0 7.25-7.25v-5.56h-2.54z"/><rect class="cls-1" x="174.4" y="49.11" width="2.54"/><rect class="cls-1" x="186.37" y="49.11" width="2.54"/><path class="cls-1" d="M186.37 49.11h2.54v2.54h-2.54zm-11.97 0h2.54v2.54h-2.54zm11.97 2.54h2.54v2.54h-2.54zm-11.97 0h2.54v2.54h-2.54z"/></g></svg>