<svg xmlns="http://www.w3.org/2000/svg" viewBox="0 0 240 240"><defs><style>.cls-2{fill:#262626}</style></defs><g id="Calque_2" data-name="Calque 2"><path d="M207.89 176.8H32.24a10.38 10.38 0 0 1-10.37-10.37V40.14a10.38 10.38 0 0 1 10.37-10.36h175.65a10.38 10.38 0 0 1 10.37 10.37v126.29a10.38 10.38 0 0 1-10.37 10.36z" fill="#fff"/><path class="cls-2" d="M207.89 176.8H32.24a10.38 10.38 0 0 1-10.37-10.37V40.14a10.38 10.38 0 0 1 10.37-10.36h175.65a10.38 10.38 0 0 1 10.37 10.37v126.29a10.38 10.38 0 0 1-10.37 10.36zM32.24 34.47a5.68 5.68 0 0 0-5.67 5.67v126.3a5.68 5.68 0 0 0 5.67 5.67h175.65a5.68 5.68 0 0 0 5.67-5.67V40.14a5.68 5.68 0 0 0-5.67-5.67z"/><path class="cls-2" d="M117.06 223.91a2.35 2.35 0 0 1-2.35-2.35v-47.1a2.35 2.35 0 0 1 4.7 0v47.11a2.35 2.35 0 0 1-2.35 2.34zm0-192.43a2.35 2.35 0 0 1-2.35-2.35V15.36a2.35 2.35 0 0 1 4.7 0v13.77a2.35 2.35 0 0 1-2.35 2.35zm63.15 192.43a2.35 2.35 0 0 1-2.21-1.55l-17-47.11a2.35 2.35 0 1 1 4.41-1.6l17 47.11a2.35 2.35 0 0 1-2.21 3.15zm-126.3 0a2.35 2.35 0 0 1-2.21-3.15l17-47.11a2.35 2.35 0 1 1 4.41 1.6l-17 47.11a2.35 2.35 0 0 1-2.2 1.55z"/><path id="Fill-9" d="M150.19 72.53c-4.07-3-10.74-2.1-13.78 1.94l-27.7 36.61-7.71-7.84a10.36 10.36 0 0 0-13.93-.15 9.77 9.77 0 0 0-.15 13.83l15.72 16a10 10 0 0 0 7 2.93h.62a9.84 9.84 0 0 0 7.26-3.86l34.59-45.72A9.6 9.6 0 0 0 154 79a9.71 9.71 0 0 0-3.81-6.47z" fill="#f56900"/></g></svg>